<svg width="28" height="24" viewBox="0 0 28 24" fill="none" xmlns="http://www.w3.org/2000/svg">
<path d="M24.0843 11.5959L20.9885 8.50008V4.92387C20.9885 4.27724 20.4645 3.75319 19.8169 3.75319C19.1708 3.75319 18.6468 4.27724 18.6468 4.92387V6.15845L16.3417 3.85327C15.202 2.71422 13.2205 2.71624 12.0835 3.85533L4.34272 11.5959C3.88576 12.0538 3.88576 12.7946 4.34272 13.2518C4.79988 13.7095 5.54217 13.7095 5.99916 13.2518L13.7392 5.511C13.9913 5.26017 14.4357 5.26017 14.6866 5.51025L22.4279 13.2518C22.6574 13.4807 22.9567 13.5945 23.2559 13.5945C23.5557 13.5945 23.8555 13.4806 24.0843 13.2518C24.5415 12.7947 24.5415 12.0538 24.0843 11.5959Z" fill="#477FB0"/>
<path d="M14.6206 6.71179C14.3957 6.48702 14.0315 6.48702 13.8073 6.71179L6.99852 13.5186C6.89102 13.626 6.83008 13.7727 6.83008 13.9258V18.8904C6.83008 20.0554 7.77466 20.9999 8.9396 20.9999H12.3106V16.9961C12.3106 16.0029 13.1157 15.1979 14.1088 15.1979H14.3183C15.3114 15.1979 16.1165 16.0029 16.1165 16.9961V20.9999H19.4876C20.6525 20.9999 21.5971 20.0554 21.5971 18.8905V13.9258C21.5971 13.7727 21.5366 13.626 21.4286 13.5186L14.6206 6.71179Z" fill="#477FB0"/>
</svg>
