<svg width="28" height="24" viewBox="0 0 28 24" fill="none" xmlns="http://www.w3.org/2000/svg">
<path d="M22.4335 17.699L19.9669 15.2324L17.2324 17.9669L19.6991 20.4335C20.4542 21.1887 21.6785 21.1887 22.4336 20.4335C23.1887 19.6784 23.1887 18.4542 22.4335 17.699V17.699Z" fill="#477FB0"/>
<path d="M12.7549 18.2456C12.8898 18.2456 13.0248 18.1941 13.1278 18.0912C13.3337 17.8852 13.3337 17.5513 13.1278 17.3454L12.5082 16.7258L22.8051 8.30722C22.9275 8.20706 22.9986 8.05719 22.9986 7.89895V3.52734C22.9986 3.23611 22.7625 3 22.4713 3H18.0996C17.9413 3 17.7915 3.07105 17.6913 3.19353L9.27274 13.4904L8.65315 12.8708C8.44724 12.6649 8.11333 12.6648 7.90739 12.8708C7.70144 13.0767 7.70144 13.4106 7.90739 13.6165L12.382 18.0912C12.485 18.1942 12.6199 18.2456 12.7549 18.2456ZM19.8386 5.53738C20.0445 5.33144 20.2917 5.36926 20.4976 5.5752C20.7036 5.78114 20.6671 6.0772 20.4612 6.28315L11.2208 15.4502L10.5517 14.7608L19.8386 5.53738Z" fill="#477FB0"/>
<path d="M8.30084 20.4335L10.7675 17.9669L8.03299 15.2324L5.56634 17.6991C4.81122 18.4542 4.81122 19.6785 5.56634 20.4336C6.32145 21.1887 7.54572 21.1887 8.30084 20.4335V20.4335Z" fill="#477FB0"/>
<path d="M5.19451 8.30725L9.36355 11.7158L11.0204 9.68132L7.53836 6.19365C7.33242 5.98774 7.33242 5.65948 7.53836 5.45354C7.7443 5.24759 8.00603 5.3287 8.21198 5.53464L11.6287 8.94121L13.3198 6.87697L10.3082 3.19353C10.2081 3.07105 10.0582 3 9.89996 3H5.52832C5.23708 3 5.00098 3.23611 5.00098 3.52734V7.89902C5.00098 8.05726 5.07203 8.2071 5.19451 8.30725Z" fill="#477FB0"/>
<path d="M19.3459 12.871L18.7263 13.4906L18.4888 13.2001L17.0523 14.3857L17.4376 14.771L16.7684 15.4503L16.302 14.994L14.8335 16.1886L15.4908 16.726L14.8712 17.3456C14.6653 17.5515 14.6653 17.8854 14.8712 18.0914C15.0772 18.2973 15.4111 18.2973 15.617 18.0914L20.0916 13.6167C20.1946 13.5138 20.2461 13.3788 20.2461 13.2439C20.2461 13.1089 20.1946 12.9739 20.0916 12.871C19.8857 12.6651 19.5518 12.6651 19.3459 12.871Z" fill="#477FB0"/>
</svg>
