<svg width="28" height="24" viewBox="0 0 28 24" fill="none" xmlns="http://www.w3.org/2000/svg">
<path d="M9.13926 17.3694H20.5829C20.6179 17.3694 20.6519 17.364 20.6845 17.3557C20.6871 17.3557 20.6892 17.3561 20.6918 17.3561C20.9361 17.3561 21.1346 17.1437 21.1346 16.8818V3.47438C21.1346 3.21252 20.9361 3 20.6918 3H20.5838H9.84737H9.13989C7.96141 3 7.00283 4.02728 7.00283 5.28958C7.00283 5.30651 7.00594 5.32258 7.00748 5.33892C7.00594 6.50497 6.99245 17.2195 7.00594 18.628C7.0051 18.6556 7.00196 18.6825 7.00196 18.7103C7.00196 19.9241 7.88899 20.9177 9.00474 20.9928C9.02712 20.9965 9.04907 21 9.07229 21H20.6918C20.9361 21 21.1346 20.7876 21.1346 20.5256L21.1346 20.6682C21.1661 20.0513 20.6653 20.0513 20.6653 20.0513C20.421 20.0513 20.5509 20.0513 20.4352 20.0513H20.2491H9.13926C8.46645 20.0513 7.91723 19.4789 7.89024 18.7652C7.89089 18.7525 7.89305 18.7405 7.89283 18.7275C7.89239 18.7067 7.89174 18.6742 7.8913 18.6311C7.92999 17.9287 8.47413 17.3694 9.13926 17.3694ZM9.44116 5.28958C9.44116 5.02772 9.63951 4.8152 9.88391 4.8152C10.1283 4.8152 10.3267 5.02772 10.3267 5.28958V14.9254C10.3267 15.1871 10.1283 15.3998 9.88391 15.3998C9.63951 15.3998 9.44116 15.1871 9.44116 14.9254V5.28958Z" fill="#477FB0"/>
</svg>
