<svg width="28" height="24" viewBox="0 0 28 24" fill="none" xmlns="http://www.w3.org/2000/svg">
<path d="M8.24999 8.26462C8.24999 6.30038 9.84823 4.70214 11.8125 4.70214H18.6622C18.4154 3.8389 17.6287 3.20215 16.6874 3.20215H8.06249C6.92475 3.20215 6 4.12689 6 5.26464V16.8896C6 18.0273 6.92475 18.9521 8.06249 18.9521H8.24999V8.26462Z" fill="#477FB0"/>
<path d="M20.4384 6.20215H11.8135C10.6757 6.20215 9.75098 7.12689 9.75098 8.26464V19.1396C9.75098 20.2773 10.6757 21.2021 11.8135 21.2021H20.4384C21.5762 21.2021 22.5009 20.2773 22.5009 19.1396V8.26464C22.5009 7.12689 21.5762 6.20215 20.4384 6.20215ZM18.9384 18.7614H13.3135C13.003 18.7614 12.751 18.6073 12.751 18.2968C12.751 17.9863 13.003 17.8271 13.3135 17.8271H18.9384C19.2489 17.8271 19.5022 17.9863 19.5022 18.2968C19.5022 18.6073 19.2489 18.7614 18.9384 18.7614ZM18.9384 15.7563H13.3135C13.003 15.7563 12.751 15.5824 12.751 15.2719C12.751 14.9614 13.003 14.8271 13.3135 14.8271H18.9384C19.2489 14.8271 19.5022 14.9614 19.5022 15.2719C19.5022 15.5824 19.2489 15.7563 18.9384 15.7563ZM18.9384 13.1466H13.3135C13.003 13.1466 12.751 12.953 12.751 12.6425C12.751 12.332 13.003 12.2021 13.3135 12.2021H18.9384C19.2489 12.2021 19.5009 12.332 19.5009 12.6425C19.5009 12.953 19.2489 13.1466 18.9384 13.1466ZM18.9384 10.1514H13.3135C13.003 10.1514 12.751 10.0171 12.751 9.7066C12.751 9.3961 13.003 9.20213 13.3135 9.20213H18.9384C19.3836 9.20213 19.5009 9.49901 19.5009 9.67694C19.5009 9.98744 19.2489 10.1514 18.9384 10.1514Z" fill="#477FB0"/>
</svg>
