<svg width="31" height="31" viewBox="0 0 31 31" fill="none" xmlns="http://www.w3.org/2000/svg">
<path d="M28.9364 7.91547C28.7988 7.56425 28.5356 7.28514 28.2044 7.13928C28.0414 7.06563 27.8664 7.02656 27.6893 7.02429H20.9118C20.5523 7.02429 20.2075 7.17573 19.9533 7.44529C19.6991 7.71485 19.5562 8.08046 19.5562 8.46168C19.5562 8.84289 19.6991 9.2085 19.9533 9.47806C20.2075 9.74762 20.5523 9.89906 20.9118 9.89906H24.4225L16.8452 17.934L12.3856 13.1907C12.2596 13.0559 12.1097 12.949 11.9445 12.876C11.7793 12.8031 11.6021 12.7655 11.4232 12.7655C11.2442 12.7655 11.0671 12.8031 10.9019 12.876C10.7367 12.949 10.5868 13.0559 10.4608 13.1907L2.32772 21.815C2.20067 21.9486 2.09982 22.1076 2.03101 22.2827C1.96219 22.4579 1.92676 22.6458 1.92676 22.8355C1.92676 23.0253 1.96219 23.2131 2.03101 23.3883C2.09982 23.5635 2.20067 23.7224 2.32772 23.8561C2.45373 23.9908 2.60365 24.0977 2.76883 24.1707C2.93401 24.2437 3.11118 24.2812 3.29013 24.2812C3.46907 24.2812 3.64624 24.2437 3.81142 24.1707C3.97661 24.0977 4.12653 23.9908 4.25254 23.8561L11.4232 16.2379L15.8828 20.9813C16.0088 21.116 16.1587 21.2229 16.3239 21.2959C16.4891 21.3689 16.6663 21.4065 16.8452 21.4065C17.0242 21.4065 17.2013 21.3689 17.3665 21.2959C17.5317 21.2229 17.6816 21.116 17.8076 20.9813L26.3338 11.9258V15.6486C26.3338 16.0298 26.4766 16.3954 26.7308 16.665C26.985 16.9345 27.3298 17.086 27.6893 17.086C28.0488 17.086 28.3936 16.9345 28.6478 16.665C28.902 16.3954 29.0448 16.0298 29.0448 15.6486V8.46168C29.0427 8.27384 29.0058 8.08828 28.9364 7.91547Z" fill="#F4FAFF"/>
</svg>
