<svg width="79" height="109" viewBox="0 0 79 109" fill="none" xmlns="http://www.w3.org/2000/svg">
<path d="M30.133 103.677C36.8596 101.832 39.0678 95.0473 39.2727 91.9056L29.3107 88.582C26.601 99.2234 28.6909 103.092 30.133 103.677Z" fill="#9DC2DC"/>
<path d="M31.9438 104.231L37.3757 98.2924L27.9722 98.6628L25.1215 103.536L31.9438 104.231Z" fill="#4884B2" stroke="#4884B2" stroke-width="0.638163"/>
<path d="M26.7981 101.174L28.6035 102.183C26.7127 102.881 25.094 105.014 24.8459 104.97C24.3057 103.782 25.8362 101.837 26.7981 101.174Z" fill="#4884B2" stroke="#4884B2" stroke-width="0.638163"/>
<path d="M28.2451 101.409L30.7797 102.168C28.6187 103.558 26.8956 107.25 26.8783 106.669C25.8708 105.34 27.2324 102.5 28.2451 101.409Z" fill="#4884B2" stroke="#4884B2" stroke-width="0.638163"/>
<path d="M30.1536 102.556L33.1431 102.839C31.0845 104.806 29.8398 108.699 29.557 108.096C28.1211 106.868 29.2946 103.954 30.1536 102.556Z" fill="#4884B2" stroke="#4884B2" stroke-width="0.638163"/>
<path d="M53.2021 97.4507L51.4702 98.5812C53.4046 99.1482 55.1659 101.164 55.4104 101.103C55.8677 99.8809 54.2073 98.0465 53.2021 97.4507Z" fill="#4884B2" stroke="#4884B2" stroke-width="0.638163"/>
<path d="M51.7657 98.3725L49.5314 99.7896C51.9879 100.541 54.6467 103.629 54.506 103.066C55.1157 101.513 53.0358 99.1475 51.7657 98.3725Z" fill="#4884B2" stroke="#4884B2" stroke-width="0.638163"/>
<path d="M49.6855 99.1125L47.03 100.514C49.6834 101.547 52.3194 104.671 52.3506 104.005C53.2096 102.323 51.0129 100.077 49.6855 99.1125Z" fill="#4884B2" stroke="#4884B2" stroke-width="0.638163"/>
<path d="M48.7554 101.198L43.5939 99.3107L53.1357 95.6869L54.7788 100.509L48.7554 101.198Z" fill="#4884B2" stroke="#4884B2" stroke-width="0.638163"/>
<circle cx="42.463" cy="72.8114" r="26.6114" fill="#9DC2DC"/>
<path d="M42.271 92.0196C49.2693 92.0196 54.3961 85.5223 54.3961 78.2353C54.3961 70.9483 49.2693 64.451 42.271 64.451C35.2728 64.451 30.1459 70.9483 30.1459 78.2353C30.1459 85.5223 35.2728 92.0196 42.271 92.0196Z" fill="url(#paint0_linear)" stroke="url(#paint1_linear)" stroke-width="4.33951"/>
<path d="M78.2331 78.5735C79.449 68.5216 68.9383 59.976 64.6208 57.9582L51.5814 64.8634C59.5528 75.8049 77.0286 80.1155 78.2331 78.5735Z" fill="#9DC2DC"/>
<path d="M71.0035 75.2123L69.6624 65.004L66.1085 65.4709L67.4496 75.6792L71.0035 75.2123Z" fill="url(#paint2_linear)"/>
<path d="M71.9349 82.3305L70.9929 75.1604L67.439 75.6273L68.381 82.7974L71.9349 82.3305Z" fill="url(#paint3_linear)"/>
<path d="M70.6239 75.2088L69.2827 65.0005L66.4666 65.3705L67.8077 75.5787L70.6239 75.2088Z" fill="white"/>
<path d="M68.7064 65.1043C68.8323 65.9522 68.9537 66.7991 69.0706 67.6451L69.4143 70.1887L69.7399 72.7392C69.8464 73.5897 69.9481 74.4407 70.0449 75.2924C69.919 74.4445 69.7971 73.5961 69.6792 72.7472L69.3358 70.199L69.01 67.6531C68.9047 66.8037 68.8035 65.9541 68.7064 65.1043Z" fill="url(#paint4_linear)"/>
<path d="M68.1532 65.1778C68.279 66.0257 68.4004 66.8726 68.5174 67.7186L68.8611 70.2621L69.1866 72.8127C69.2931 73.6631 69.3948 74.5142 69.4917 75.3659C69.3658 74.518 69.2439 73.6696 69.126 72.8207L68.7825 70.2725L68.4567 67.7266C68.351 66.8773 68.2498 66.0277 68.1532 65.1778Z" fill="url(#paint5_linear)"/>
<path d="M67.5952 65.2907C67.7289 66.1321 67.8555 66.9729 67.9751 67.8131L68.3223 70.3398L68.6401 72.8749C68.7429 73.7204 68.8379 74.5668 68.9253 75.4143C68.7908 74.573 68.6635 73.7308 68.5435 72.8876L68.1957 70.3564L67.8785 67.8258C67.7759 66.9815 67.6814 66.1365 67.5952 65.2907Z" fill="url(#paint6_linear)"/>
<path d="M67.0882 65.3572C67.2227 66.1985 67.3493 67.0393 67.468 67.8796L67.8152 70.4063L68.133 72.9414C68.2358 73.7869 68.3309 74.6334 68.4182 75.4809C68.2828 74.6397 68.1555 73.7974 68.0364 72.9541L67.6886 70.4229L67.3714 67.8923C67.2688 67.0481 67.1744 66.203 67.0882 65.3572Z" fill="url(#paint7_linear)"/>
<path d="M66.1406 65.2606L67.6228 76.3986L68.4673 82.7491L66.8358 82.9658L65.9912 76.6153L64.5091 65.4772L66.1406 65.2606Z" fill="url(#paint8_linear)"/>
<path opacity="0.1" d="M66.1784 65.2551L67.6606 76.3931L68.5052 82.7436L66.8736 82.9603L66.0291 76.6098L64.5469 65.4718L66.1784 65.2551Z" fill="url(#paint9_linear)"/>
<path d="M67.4892 76.4131L66.0081 65.2749L64.7146 65.4469L66.1958 76.5851L67.4892 76.4131Z" fill="white"/>
<path d="M65.7535 65.4011C65.8864 66.3197 66.0154 67.2384 66.1406 68.1572L66.5139 70.9191L66.8771 73.6852C66.9957 74.6067 67.1113 75.5286 67.224 76.451C67.0921 75.5311 66.9634 74.6123 66.8378 73.6944L66.4636 70.9329L66.1013 68.1665C65.9828 67.245 65.8668 66.3232 65.7535 65.4011Z" fill="url(#paint10_linear)"/>
<path d="M65.5181 65.5606C65.6494 66.4703 65.7766 67.3787 65.8998 68.2856L66.2698 71.0155L66.6279 73.7503C66.7457 74.661 66.8604 75.5723 66.9718 76.4841C66.841 75.5757 66.7138 74.6673 66.59 73.7591L66.2201 71.0292L65.8619 68.2944C65.7447 67.3834 65.6301 66.4721 65.5181 65.5606Z" fill="url(#paint11_linear)"/>
<path d="M65.2234 65.2923C65.3581 66.2265 65.4889 67.16 65.6158 68.0928L65.996 70.8983L66.364 73.7089C66.4851 74.6448 66.6028 75.581 66.717 76.5174C66.5817 75.5834 66.4506 74.6501 66.3237 73.7173L65.9445 70.9114L65.5754 68.1012C65.4557 67.1686 65.3384 66.2323 65.2234 65.2923Z" fill="url(#paint12_linear)"/>
<path d="M64.9696 65.3212C65.1047 66.2549 65.2359 67.1887 65.3631 68.1226L65.7425 70.9299L66.1117 73.7413C66.2329 74.6777 66.3502 75.6144 66.4638 76.5516C66.3294 75.6175 66.1986 74.6836 66.0713 73.7497L65.6909 70.9429L65.3227 68.131C65.2022 67.1943 65.0845 66.2577 64.9696 65.3212Z" fill="url(#paint13_linear)"/>
<path d="M64.5096 76.5194L63.1685 66.3112L59.6146 66.7781L60.9557 76.9863L64.5096 76.5194Z" fill="url(#paint14_linear)"/>
<path d="M65.4396 83.6381L64.4976 76.468L60.9437 76.9349L61.8857 84.105L65.4396 83.6381Z" fill="url(#paint15_linear)"/>
<path d="M64.1285 76.5164L62.7874 66.3081L59.9712 66.6781L61.3124 76.8864L64.1285 76.5164Z" fill="white"/>
<path d="M62.2122 66.4119C62.3381 67.2598 62.4595 68.1068 62.5765 68.9527L62.9202 71.4963L63.2457 74.0468C63.3522 74.8973 63.4539 75.7483 63.5508 76.6001C63.4249 75.7522 63.303 74.9037 63.1851 74.0548L62.8416 71.5066L62.5158 68.9607C62.4106 68.1113 62.3094 67.2617 62.2122 66.4119Z" fill="url(#paint16_linear)"/>
<path d="M61.659 66.4848C61.7849 67.3327 61.9063 68.1796 62.0232 69.0256L62.367 71.5691L62.6925 74.1197C62.799 74.9701 62.9007 75.8212 62.9975 76.6729C62.8717 75.825 62.7498 74.9766 62.6319 74.1277L62.2884 71.5795L61.9626 69.0336C61.8568 68.1843 61.7556 67.3347 61.659 66.4848Z" fill="url(#paint17_linear)"/>
<path d="M61.0999 66.5983C61.2335 67.4397 61.3601 68.2805 61.4797 69.1207L61.8269 71.6474L62.1447 74.1825C62.2475 75.028 62.3426 75.8745 62.4299 76.7219C62.2954 75.8807 62.1681 75.0384 62.0481 74.1952L61.7004 71.664L61.3831 69.1334C61.2805 68.2891 61.1861 67.4441 61.0999 66.5983Z" fill="url(#paint18_linear)"/>
<path d="M60.5928 66.6644C60.7273 67.5057 60.8539 68.3465 60.9726 69.1868L61.3198 71.7134L61.6377 74.2486C61.7404 75.094 61.8355 75.9405 61.9228 76.788C61.7874 75.9468 61.6601 75.1046 61.541 74.2613L61.1933 71.7301L60.876 69.1994C60.7734 68.3552 60.679 67.5102 60.5928 66.6644Z" fill="url(#paint19_linear)"/>
<path d="M64.4062 64.7501L65.8884 75.8881L66.733 82.2386L65.1014 82.4553L64.2569 76.1048L62.7747 64.9667L64.4062 64.7501Z" fill="url(#paint20_linear)"/>
<path opacity="0.1" d="M64.4426 64.7445L65.9248 75.8825L66.7693 82.233L65.1378 82.4497L64.2932 76.0992L62.8111 64.9611L64.4426 64.7445Z" fill="url(#paint21_linear)"/>
<path d="M65.7546 75.9029L64.2734 64.7648L62.98 64.9368L64.4611 76.0749L65.7546 75.9029Z" fill="white"/>
<path d="M64.0198 64.8908C64.1527 65.8095 64.2818 66.7282 64.407 67.6469L64.7802 70.4089L65.1435 73.1749C65.262 74.0964 65.3776 75.0184 65.4903 75.9407C65.3585 75.0209 65.2297 74.102 65.1042 73.1842L64.7299 70.4227L64.3677 67.6562C64.2491 66.7347 64.1332 65.8129 64.0198 64.8908Z" fill="url(#paint22_linear)"/>
<path d="M63.782 65.0504C63.9133 65.9602 64.0405 66.8685 64.1637 67.7755L64.5337 70.5054L64.8918 73.2402C65.0097 74.1509 65.1243 75.0621 65.2357 75.974C65.1049 75.0655 64.9777 74.1572 64.8539 73.2489L64.484 70.519L64.1259 67.7842C64.0087 66.8733 63.894 65.962 63.782 65.0504Z" fill="url(#paint23_linear)"/>
<path d="M63.4886 64.782C63.6232 65.7163 63.754 66.6498 63.8809 67.5825L64.2611 70.3881L64.6292 73.1987C64.7503 74.1346 64.8679 75.0708 64.9821 76.0072C64.8468 75.0732 64.7157 74.1398 64.5888 73.2071L64.2096 70.4011L63.8405 67.5909C63.7208 66.6584 63.6035 65.7221 63.4886 64.782Z" fill="url(#paint24_linear)"/>
<path d="M63.2347 64.8105C63.3698 65.7443 63.501 66.6781 63.6282 67.612L64.0076 70.4192L64.3768 73.2307C64.498 74.1671 64.6154 75.1038 64.729 76.041C64.5945 75.1069 64.4637 74.173 64.3364 73.2391L63.9561 70.4323L63.5879 67.6204C63.4674 66.6837 63.3496 65.7471 63.2347 64.8105Z" fill="url(#paint25_linear)"/>
<path d="M67.0657 86.5573C72.6621 87.0412 77.2012 81.0517 78.2382 78.6196L74.1626 71.5206C68.247 76.1476 66.1879 85.9187 67.0657 86.5573Z" fill="#9DC2DC"/>
<path d="M62.8258 84.9529C64.9392 85.9324 66.7528 86.2172 67.6445 86.2481C67.8313 86.2546 67.9376 86.0555 67.8581 85.8864C67.0026 84.0637 67.2822 81.6089 67.2827 81.3734C67.2813 82.0621 64.5327 83.6255 62.8213 84.4998C62.6336 84.5958 62.6346 84.8643 62.8258 84.9529Z" fill="#4884B2" stroke="#4884B2" stroke-width="0.638163" stroke-linejoin="round"/>
<path d="M66.298 84.9587C65.6447 84.6915 64.5076 84.0416 63.1973 82.7885C63.0449 82.6428 63.1309 82.3881 63.3395 82.3576C64.9147 82.1269 67.3814 81.651 67.6302 81.1243C67.6345 81.1147 67.6378 81.1067 67.6399 81.1006C67.6372 81.1085 67.6339 81.1164 67.6302 81.1243C67.5059 81.402 66.5045 83.096 66.6228 84.6898C66.6366 84.8761 66.471 85.0294 66.298 84.9587Z" fill="#4884B2" stroke="#4884B2" stroke-width="0.638163" stroke-linejoin="round"/>
<path d="M66.1062 82.7579C65.7316 82.4502 65.1764 81.8734 64.6075 80.9656C64.4955 80.787 64.6445 80.5634 64.854 80.5866C65.9478 80.7082 67.5319 80.8083 67.7803 80.5159C67.7849 80.5103 67.7885 80.5056 67.791 80.5018C67.7878 80.5066 67.7842 80.5113 67.7803 80.5159C67.6525 80.6728 66.7471 81.5592 66.4947 82.5925C66.4504 82.7741 66.2506 82.8765 66.1062 82.7579Z" fill="#4884B2" stroke="#4884B2" stroke-width="0.638163" stroke-linejoin="round"/>
<path d="M68.559 86.3196L67.8865 86.2638C66.6255 84.28 67.0336 81.824 67.5249 80.7848C67.7343 80.4579 66.9301 81.3633 67.6253 80.5502C68.2451 79.8254 68.4773 83.8105 68.8353 86.0193C68.8623 86.1855 68.7267 86.3336 68.559 86.3196Z" fill="#4884B2" stroke="#4884B2" stroke-width="0.638163"/>
<path d="M9.98766 56.2679C3.4124 56.5716 1.59547 59.6855 1.5658 61.2L11.6386 63.7049C13.7401 58.7538 11.4515 56.681 9.98766 56.2679Z" fill="#9DC2DC"/>
<path d="M1.35531 61.0766C4.81289 70.216 15.17 74.1032 19.8808 74.8245L23.04 61.0541C6.87321 55.9516 2.07716 59.2579 1.35531 61.0766Z" fill="#9DC2DC"/>
<path d="M11.9041 59.7906C10.6618 57.9718 6.45564 57.8828 3.9831 58.1605L2.6655 58.5806L2.26392 62.8804C2.15284 63.7372 4.35951 62.55 7.41527 62.3133C8.55821 62.1445 11.381 62.323 12.4658 62.3058C12.7962 62.2252 13.1464 61.6094 11.9041 59.7906Z" fill="#4884B2"/>
<path d="M6.71634 50.5634C5.83886 52.6496 5.21772 56.3265 5.30002 58.9256L5.62262 60.3403L9.99425 61.2254C10.8628 61.4341 9.82715 59.0122 9.83453 55.8116C9.75509 54.6058 10.5649 51.6923 10.636 50.5634C10.5805 50.2114 9.99425 42.7705 6.71634 50.5634Z" fill="#4884B2"/>
<path d="M1.00786 54.302C-0.79817 61.8847 3.92243 65.8982 6.6075 66.1504C10.4792 66.5325 13.1697 63.9376 9.64095 59.4317C12.2483 59.2369 14.4729 58.3554 13.6358 57.2701C12.8735 57.2749 2.02347 50.0379 1.00786 54.302Z" fill="#4884B2"/>
<path d="M1.00786 54.302C-0.79817 61.8847 3.92243 65.8982 6.6075 66.1504C10.4792 66.5325 13.1697 63.9376 9.64095 59.4317C12.2483 59.2369 14.4729 58.3554 13.6358 57.2701C12.8735 57.2749 2.02347 50.0379 1.00786 54.302Z" fill="#4884B2"/>
<circle cx="41.6609" cy="40.1519" r="28.9088" transform="rotate(4.30079 41.6609 40.1519)" fill="#9DC2DC"/>
<path d="M38.6385 10.3646C37.6044 19.5122 40.9506 22.9692 42.753 23.5543L45.5537 16.7483C43.2037 18.126 40.6849 9.61286 38.6385 10.3646Z" fill="url(#paint26_linear)"/>
<path d="M42.1322 0.697063C45.4899 0.524415 44.8774 11.5111 48.1014 12.3391L46.514 15.4508L43.8353 19.1912C42.6014 18.3217 41.4252 17.9401 41.0004 13.9626C39.6376 12.3413 40.29 -3.35332 41.4718 6.50645C41.5734 4.14646 41.4434 3.92101 42.1322 0.697063Z" fill="url(#paint27_linear)"/>
<path d="M41.5684 10.5836C40.5343 19.7312 43.8805 23.1882 45.6829 23.7733L48.4837 16.9673C46.1336 18.345 43.6148 9.83185 41.5684 10.5836Z" fill="url(#paint28_linear)"/>
<path d="M45.8876 2.598C48.8274 2.44684 48.2912 12.0662 51.1139 12.7912L49.7241 15.5156L47.3787 18.7904C46.2984 18.0292 45.2686 17.6951 44.8966 14.2126C43.7034 12.7931 44.2747 -0.948302 45.3094 7.68439C45.3983 5.61811 45.2846 5.42071 45.8876 2.598Z" fill="url(#paint29_linear)"/>
<path d="M23.4989 31.4598L23.4989 31.4597L23.4874 31.4673C20.5577 33.402 16.917 37.0449 15.7416 41.7292C15.1466 44.1008 15.1916 46.7175 16.2645 49.4505C17.3325 52.171 19.392 54.9395 22.7195 57.6813L22.7461 57.7033L22.7741 57.7237C23.3592 58.1523 23.9917 58.6593 24.6793 59.2104C29.054 62.7172 35.6551 68.0085 46.4447 66.227L46.5254 66.2137L46.6037 66.1896C49.1916 65.3935 51.9802 63.9185 54.3035 62.4121C56.5287 60.9692 58.4692 59.4051 59.4204 58.2641C60.4011 57.4604 61.6899 56.0721 62.8698 54.4098C64.0889 52.6923 65.2552 50.5936 65.8346 48.4342C66.386 46.6996 66.7576 44.3963 66.7242 42.9598C66.6556 40.0061 65.0983 37.4924 63.2068 35.692C61.327 33.9028 58.965 32.6705 57.0025 32.3722C55.6527 32.1671 54.5355 32.2218 53.5267 32.4983C52.5259 32.7727 51.7088 33.2453 50.9516 33.7581C50.6147 33.9862 50.288 34.222 49.9558 34.4617C48.7876 35.3046 47.5504 36.1973 45.5598 36.9849C44.8382 37.2162 44.0191 36.9641 42.7337 35.958C42.1054 35.4663 41.4518 34.8639 40.7161 34.1852L40.7114 34.1808C39.9906 33.5157 39.2017 32.7878 38.3528 32.1046C36.6531 30.7366 34.6091 29.4599 32.1016 29.1111C29.5624 28.7579 26.7284 29.3793 23.4989 31.4598Z" fill="#D0E3EF" stroke="url(#paint30_linear)" stroke-width="2.42502"/>
<path d="M43.8419 54.5575C40.9054 51.2136 37.746 52.5295 36.099 53.9781C35.8386 54.2071 35.9314 54.6153 36.2529 54.7453L39.9076 56.2231C40.0088 56.2641 40.1207 56.2707 40.226 56.2421L43.5968 55.3273C43.9383 55.2346 44.0754 54.8234 43.8419 54.5575Z" fill="#35547A"/>
<path d="M33.4627 56.4439C35.6559 60.6201 39.1663 57.6247 39.9055 56.4032C40.3498 57.76 47.6972 60.5226 49.0694 55.6118" stroke="#35547A" stroke-width="0.765796" stroke-linecap="round"/>
<path d="M29.226 22.6437C16.6866 23.9533 12.2553 39.8182 14.9772 48.7264L16.4256 44.7837C22.8915 27.7349 31.9553 32.3056 34.3321 34.739C43.3047 43.9253 49.1183 35.5508 54.3035 33.8288C58.1104 32.5646 66.7867 38.0315 66.4454 50.2291C73.7596 31.2602 59.6759 27.0653 54.5146 27.6173C51.1301 27.9793 44.4074 31.9697 41.2619 28.5405C34.5782 21.2543 31.5176 22.24 29.226 22.6437Z" fill="url(#paint31_linear)"/>
<path d="M37.0948 41.7252C29.9861 32.1463 20.7966 41.44 17.1743 46.3275C16.0061 47.7382 17.8178 51.2861 19.8795 53.3188L25.7467 52.9278C32.4913 53.1848 44.2034 51.304 37.0948 41.7252Z" fill="#5F8EB1"/>
<circle cx="30.8241" cy="46.3757" r="5.29676" transform="rotate(4.30079 30.8241 46.3757)" fill="#F4E8E8"/>
<circle cx="30.9061" cy="46.2565" r="3.82898" transform="rotate(4.30079 30.9061 46.2565)" fill="#35547A"/>
<circle r="1.40396" transform="matrix(-0.997184 -0.0749924 -0.0749924 0.997184 33.2933 45.1556)" fill="#F4E8E8"/>
<path d="M44.6175 42.2543C53.0788 33.8464 60.775 44.41 63.6256 49.7842C64.5696 51.3538 62.2477 54.5909 59.9052 56.2924L54.1625 55.0282C47.4553 54.2735 36.1562 50.6622 44.6175 42.2543Z" fill="#5F8EB1"/>
<circle cx="49.9544" cy="47.302" r="5.29676" transform="rotate(4.30079 49.9544 47.302)" fill="#F4E8E8"/>
<circle r="3.82898" transform="matrix(-0.997184 -0.0749924 -0.0749924 0.997184 49.7794 47.1642)" fill="#35547A"/>
<circle r="1.40396" transform="matrix(-0.997184 -0.0749924 -0.0749924 0.997184 52.4117 46.2098)" fill="#F4E8E8"/>
<g filter="url(#filter0_d)">
<path d="M12.9774 40.4629C12.1675 40.2886 11.3697 40.8039 11.1954 41.6138C11.0212 42.4237 11.5365 43.2215 12.3464 43.3958L12.9774 40.4629ZM18.4268 44.7039L19.8932 45.0194L20.5242 42.0865L19.0578 41.771L18.4268 44.7039ZM12.3464 43.3958L18.4268 44.7039L19.0578 41.771L12.9774 40.4629L12.3464 43.3958Z" fill="url(#paint32_linear)"/>
<path d="M62.3773 43.9397L60.8773 43.9443L60.8864 46.9443L62.3864 46.9397L62.3773 43.9397ZM69.7253 46.9174C70.5537 46.9149 71.2232 46.2412 71.2207 45.4128C71.2182 44.5844 70.5446 43.9149 69.7162 43.9174L69.7253 46.9174ZM62.3864 46.9397L69.7253 46.9174L69.7162 43.9174L62.3773 43.9397L62.3864 46.9397Z" fill="url(#paint33_linear)"/>
<path d="M55.0939 56.6555C53.1019 57.4712 50.9132 57.6757 48.8047 57.2431C46.6961 56.8106 44.7624 55.7605 43.248 54.2256C41.7337 52.6906 40.7066 50.7399 40.2969 48.6199C39.8871 46.5 40.1129 44.3061 40.9459 42.3157C41.7788 40.3253 43.1814 38.6278 44.9764 37.4378C46.7713 36.2478 48.8779 35.6188 51.0297 35.6303C53.1816 35.6419 55.2821 36.2934 57.0657 37.5026C58.8492 38.7118 60.2356 40.4243 61.0496 42.4235C61.5903 43.7509 61.8651 45.172 61.8584 46.6057C61.8516 48.0394 61.5635 49.4575 61.0105 50.7791C60.4574 52.1007 59.6502 53.2999 58.6351 54.3082C57.6199 55.3164 56.4166 56.1141 55.0939 56.6555ZM59.3446 43.1252C58.6691 41.4642 57.5179 40.0411 56.0367 39.0361C54.5554 38.0311 52.8106 37.4893 51.0231 37.4792C49.2355 37.4691 47.4853 37.9912 45.9941 38.9794C44.5028 39.9676 43.3374 41.3776 42.6452 43.0309C41.953 44.6843 41.7652 46.5068 42.1054 48.2679C42.4457 50.029 43.2988 51.6495 44.5568 52.9246C45.8148 54.1997 47.4212 55.0721 49.1728 55.4313C50.9244 55.7905 52.7425 55.6205 54.3972 54.9427C56.6157 54.034 58.3831 52.2782 59.3108 50.0614C60.2385 47.8445 60.2506 45.3483 59.3443 43.1215L59.3446 43.1252Z" fill="#35547A"/>
<g opacity="0.3">
<path opacity="0.3" d="M42.5344 50.0989C41.8584 48.4381 41.6884 46.6137 42.0457 44.8565C42.4031 43.0993 43.2719 41.4882 44.5422 40.2271C45.8125 38.9659 47.4272 38.1112 49.1821 37.7712C50.937 37.4312 52.7533 37.621 54.4013 38.3168C56.0493 39.0126 57.4549 40.1829 58.4404 41.6799C59.4259 43.1769 59.9469 44.9333 59.9377 46.7269C59.9284 48.5205 59.3893 50.2707 58.3885 51.7562C57.3876 53.2418 55.97 54.3959 54.315 55.0725C52.0963 55.9797 49.6089 55.9653 47.3998 55.0326C45.1906 54.0999 43.4405 52.3253 42.5344 50.0989Z" fill="white"/>
<path opacity="0.3" d="M41.907 47.6104C41.664 45.2329 42.3648 42.8556 43.8573 40.9941C45.3498 39.1325 47.5137 37.9367 49.88 37.6659L41.907 47.6104Z" fill="#EBEBEB"/>
<path opacity="0.3" d="M45.2463 51.6525L56.1654 38.025C56.5868 38.6089 56.9374 39.241 57.2097 39.908C57.5231 40.6719 57.7291 41.4758 57.8217 42.2965L49.7613 52.3548C48.2214 52.513 46.6666 52.2711 45.2463 51.6525Z" fill="#EBEBEB"/>
<path opacity="0.3" d="M42.9162 50.922L53.3167 37.9416C53.8872 38.1021 54.4409 38.3176 54.9702 38.585L43.895 52.4081C43.5191 51.9475 43.1911 51.4496 42.9162 50.922Z" fill="#EBEBEB"/>
<path opacity="0.3" d="M44.1477 51.0803L55.3722 37.0696C55.4484 37.1492 55.5233 37.2289 55.596 37.3113L44.4243 51.2465C44.3353 51.1934 44.2448 51.1391 44.1477 51.0803Z" fill="#EBEBEB"/>
<path opacity="0.3" d="M52.675 51.5496L57.6576 45.3312C57.5989 45.5894 57.5274 45.8588 57.4434 46.1167L53.3911 51.1743C53.162 51.3087 52.9234 51.4338 52.675 51.5496Z" fill="#EBEBEB"/>
</g>
<path d="M56.7625 44.1047C56.7634 44.116 56.7644 44.1273 56.7754 44.1377C56.8307 44.2976 56.7264 43.9786 56.7584 44.0873C56.7968 44.2106 56.8348 44.3453 56.8675 44.4767C56.9806 44.9347 57.0556 45.4013 57.0916 45.8717C57.0973 45.9383 57.1023 45.9974 57.1086 46.0703C57.1104 46.0916 57.1026 45.9125 57.1073 46.0552C57.1108 46.0967 57.1143 46.1369 57.1105 46.1815C57.1151 46.3381 57.1134 46.4952 57.108 46.6527C57.0972 46.9988 57.0635 47.3439 57.0071 47.6855C56.9926 47.7665 56.9768 47.8476 56.9612 47.93C56.9415 48.0393 56.9905 47.8009 56.9567 47.9519C56.9445 48.001 56.9335 48.0488 56.9225 48.0979C56.8764 48.2816 56.8276 48.463 56.7635 48.6432C56.6995 48.8234 56.6267 49.0347 56.5451 49.2164C56.5084 49.3031 56.469 49.3888 56.4289 49.4796C56.3594 49.626 56.4629 49.4197 56.4074 49.5232C56.38 49.5724 56.3541 49.6227 56.3281 49.673C56.0811 50.1148 55.7918 50.5313 55.4643 50.9167C55.4575 50.9249 55.3977 50.9933 55.4471 50.9372C55.4966 50.8811 55.4193 50.9662 55.4114 50.977L55.2575 51.1395C55.1567 51.2431 55.0543 51.3443 54.9492 51.4432C54.726 51.6509 54.4916 51.8457 54.2488 52.031C53.9705 52.2435 53.9676 52.6957 54.1872 52.9478C54.3022 53.0745 54.4614 53.1518 54.6317 53.1634C54.802 53.175 54.9702 53.1201 55.101 53.0102C56.6407 51.8365 57.7881 50.1925 58.2015 48.2859C58.4789 47.0036 58.4717 45.6756 58.1803 44.396C58.1174 44.1091 58.0351 43.8268 57.9339 43.5512C57.8145 43.2322 57.3598 43.0939 57.0699 43.2453C56.9181 43.3233 56.8019 43.4568 56.7453 43.6183C56.6887 43.7798 56.696 43.9569 56.7657 44.1132L56.7625 44.1047Z" fill="white"/>
<path d="M55.8977 42.3771C55.8429 42.2631 55.8231 42.1353 55.8407 42.01C55.8583 41.8847 55.9126 41.7675 55.9966 41.6732C56.0807 41.5789 56.1908 41.5118 56.3129 41.4803C56.435 41.4488 56.5638 41.4544 56.6828 41.4964C56.8018 41.5383 56.9057 41.6148 56.9815 41.716C57.0572 41.8173 57.1013 41.9388 57.1082 42.0651C57.1151 42.1915 57.0845 42.317 57.0202 42.4259C56.9559 42.5347 56.8609 42.622 56.7472 42.6766C56.6719 42.713 56.5901 42.7341 56.5066 42.7387C56.4231 42.7433 56.3396 42.7314 56.2607 42.7035C56.1818 42.6757 56.1091 42.6326 56.0468 42.5766C55.9845 42.5206 55.9339 42.4528 55.8977 42.3771Z" fill="white"/>
<path d="M21.591 52.0281C22.9628 53.6868 24.7963 54.8994 26.8596 55.5124C28.9229 56.1255 31.1233 56.1115 33.1826 55.4723C35.2419 54.833 37.0676 53.5972 38.4288 51.9211C39.7899 50.245 40.6255 48.2039 40.8297 46.056C41.034 43.908 40.5978 41.7496 39.5763 39.8537C38.5548 37.9579 36.9938 36.4097 35.0909 35.405C33.1879 34.4003 31.0284 33.9841 28.8854 34.2092C26.7424 34.4343 24.7122 35.2905 23.0515 36.6695C21.9487 37.585 21.0361 38.7085 20.3659 39.9759C19.6957 41.2432 19.2809 42.6296 19.1453 44.0558C19.0096 45.4821 19.1558 46.9202 19.5755 48.2881C19.9951 49.656 20.68 50.9268 21.591 52.0281ZM24.224 38.0924C25.6031 36.9462 27.2894 36.2344 29.0695 36.0468C30.8497 35.8592 32.6437 36.2043 34.2248 37.0385C35.8058 37.8727 37.1028 39.1584 37.9518 40.7332C38.8007 42.3079 39.1634 44.1008 38.994 45.8852C38.8245 47.6696 38.1306 49.3652 37 50.7577C35.8694 52.1501 34.3528 53.1768 32.6421 53.7079C30.9315 54.2389 29.1036 54.2505 27.3896 53.7412C25.6756 53.2318 24.1526 52.2244 23.0131 50.8463C21.4855 48.9987 20.7551 46.6169 20.9825 44.2246C21.21 41.8322 22.3767 39.6253 24.2261 38.0892L24.224 38.0924Z" fill="#35547A"/>
<g opacity="0.3">
<path opacity="0.3" d="M35.758 52.17C37.1374 51.0243 38.1477 49.4958 38.6613 47.7777C39.1749 46.0597 39.1687 44.2293 38.6434 42.5181C38.1181 40.8069 37.0973 39.2917 35.7102 38.1642C34.3231 37.0367 32.6319 36.3475 30.8506 36.1837C29.0693 36.02 27.2778 36.3891 25.7028 37.2444C24.1278 38.0996 22.8399 39.4026 22.0022 40.9886C21.1644 42.5745 20.8143 44.3721 20.9963 46.1541C21.1782 47.9361 21.8839 49.6223 23.0242 50.9996C24.5527 52.8459 26.7529 54.0063 29.1408 54.2258C31.5287 54.4453 33.9089 53.7058 35.758 52.17Z" fill="white"/>
<path opacity="0.3" d="M37.4846 50.2714C38.8201 48.2895 39.3234 45.8628 38.8853 43.5174C38.4472 41.172 37.103 39.0969 35.1442 37.7421L37.4846 50.2714Z" fill="#EBEBEB"/>
<path opacity="0.3" d="M32.634 52.2607L29.4327 35.0942C28.7858 35.4103 28.1785 35.8024 27.6238 36.2622C26.9871 36.788 26.4264 37.3997 25.9577 38.0797L28.3214 50.7506C29.6047 51.6164 31.0898 52.1364 32.634 52.2607Z" fill="#EBEBEB"/>
<path opacity="0.3" d="M35.0328 52.7158L31.9837 36.3645C31.4049 36.237 30.815 36.1658 30.2222 36.1519L33.4688 53.5646C34.0175 53.3357 34.5416 53.0513 35.0328 52.7158Z" fill="#EBEBEB"/>
<path opacity="0.3" d="M33.8724 52.2744L30.5826 34.626C30.4779 34.6602 30.3742 34.6951 30.2713 34.7335L33.5501 52.2905C33.6537 52.2856 33.7591 52.2804 33.8724 52.2744Z" fill="#EBEBEB"/>
<path opacity="0.3" d="M26.1316 48.6665L24.6708 40.8332C24.6008 41.0886 24.5368 41.3599 24.4892 41.6269L25.6772 47.9979C25.8158 48.2244 25.9672 48.4473 26.1316 48.6665Z" fill="#EBEBEB"/>
</g>
<path d="M26.0389 40.1736C26.0327 40.1831 26.0265 40.1926 26.0119 40.1967C25.8877 40.3115 26.1301 40.0794 26.0506 40.1602C25.9586 40.2508 25.8616 40.3517 25.7708 40.4522C25.455 40.8026 25.1688 41.1787 24.9152 41.5765C24.8788 41.6326 24.8465 41.6823 24.8066 41.7436C24.7949 41.7616 24.8862 41.6073 24.8149 41.7309C24.7922 41.7658 24.7702 41.7997 24.7524 41.8408C24.6745 41.9767 24.6019 42.1161 24.5325 42.2575C24.3787 42.5678 24.2457 42.8879 24.1343 43.2158C24.1089 43.2941 24.0845 43.373 24.0595 43.453C24.0253 43.5587 24.0945 43.3254 24.0531 43.4744C24.0406 43.5235 24.0279 43.5709 24.0144 43.6193C23.9684 43.803 23.9259 43.986 23.8974 44.1751C23.8689 44.3643 23.8334 44.5849 23.8196 44.7836C23.8111 44.8774 23.8054 44.9715 23.798 45.0705C23.7902 45.2324 23.7963 45.0017 23.7964 45.1191C23.7973 45.1753 23.7965 45.232 23.7956 45.2886C23.8051 45.7946 23.8637 46.2984 23.9707 46.7927C23.9729 46.8031 23.9934 46.8917 23.9762 46.8188C23.9591 46.746 23.9871 46.8575 23.989 46.8707L24.048 47.0867C24.0881 47.2256 24.1307 47.3631 24.1767 47.4999C24.2755 47.7883 24.3904 48.0706 24.517 48.3485C24.6622 48.6671 24.4515 49.0673 24.1389 49.186C23.9778 49.2436 23.801 49.2365 23.6453 49.1665C23.4897 49.0964 23.3673 48.9687 23.3038 48.81C22.4997 47.0489 22.2632 45.058 22.7978 43.1819C23.158 41.9203 23.7908 40.7527 24.6512 39.7618C24.842 39.5385 25.0477 39.3284 25.267 39.1331C25.5227 38.9081 25.9888 39.0006 26.173 39.2708C26.2701 39.4112 26.3096 39.5837 26.2834 39.7528C26.2571 39.9219 26.1671 40.0747 26.0319 40.1796L26.0389 40.1736Z" fill="white"/>
<path d="M27.6159 39.0582C27.718 38.9835 27.7958 38.8802 27.8393 38.7614C27.8829 38.6427 27.8903 38.5137 27.8607 38.3909C27.831 38.2681 27.7656 38.157 27.6728 38.0716C27.5799 37.9863 27.4638 37.9305 27.339 37.9114C27.2143 37.8922 27.0866 37.9106 26.9721 37.9642C26.8575 38.0177 26.7613 38.104 26.6957 38.2122C26.63 38.3204 26.5978 38.4456 26.6031 38.5718C26.6084 38.6981 26.6511 38.8199 26.7256 38.9217C26.7749 38.9893 26.837 39.0464 26.9085 39.0899C26.9799 39.1333 27.0592 39.1622 27.1419 39.1749C27.2246 39.1876 27.309 39.1838 27.3904 39.1638C27.4717 39.1438 27.5484 39.1079 27.6159 39.0582Z" fill="white"/>
</g>
<defs>
<filter id="filter0_d" x="10.1616" y="34.1497" width="62.0591" height="25.3147" filterUnits="userSpaceOnUse" color-interpolation-filters="sRGB">
<feFlood flood-opacity="0" result="BackgroundImageFix"/>
<feColorMatrix in="SourceAlpha" type="matrix" values="0 0 0 0 0 0 0 0 0 0 0 0 0 0 0 0 0 0 127 0" result="hardAlpha"/>
<feOffset dy="1"/>
<feGaussianBlur stdDeviation="0.5"/>
<feComposite in2="hardAlpha" operator="out"/>
<feColorMatrix type="matrix" values="0 0 0 0 0.207843 0 0 0 0 0.329412 0 0 0 0 0.478431 0 0 0 0.33 0"/>
<feBlend mode="normal" in2="BackgroundImageFix" result="effect1_dropShadow"/>
<feBlend mode="normal" in="SourceGraphic" in2="effect1_dropShadow" result="shape"/>
</filter>
<linearGradient id="paint0_linear" x1="42.9177" y1="71.5" x2="42.271" y2="89.8499" gradientUnits="userSpaceOnUse">
<stop stop-color="#D0E3EF"/>
<stop offset="1" stop-color="#D0E3EF" stop-opacity="0.19"/>
</linearGradient>
<linearGradient id="paint1_linear" x1="42.9177" y1="71.5" x2="42.271" y2="89.8499" gradientUnits="userSpaceOnUse">
<stop stop-color="#D0E3EF"/>
<stop offset="1" stop-color="#D0E3EF" stop-opacity="0.19"/>
</linearGradient>
<linearGradient id="paint2_linear" x1="70.3329" y1="70.1082" x2="66.779" y2="70.5751" gradientUnits="userSpaceOnUse">
<stop stop-color="#0D4662"/>
<stop offset="1" stop-color="#375F73"/>
</linearGradient>
<linearGradient id="paint3_linear" x1="71.4639" y1="78.7455" x2="67.91" y2="79.2124" gradientUnits="userSpaceOnUse">
<stop stop-color="#0D4662"/>
<stop offset="1" stop-color="#375F73"/>
</linearGradient>
<linearGradient id="paint4_linear" x1="69.3364" y1="70.2035" x2="69.4149" y2="70.1932" gradientUnits="userSpaceOnUse">
<stop stop-color="#0D4662"/>
<stop offset="1" stop-color="#375F73"/>
</linearGradient>
<linearGradient id="paint5_linear" x1="68.7831" y1="70.277" x2="68.8617" y2="70.2667" gradientUnits="userSpaceOnUse">
<stop stop-color="#0D4662"/>
<stop offset="1" stop-color="#375F73"/>
</linearGradient>
<linearGradient id="paint6_linear" x1="68.1963" y1="70.3609" x2="68.3229" y2="70.3443" gradientUnits="userSpaceOnUse">
<stop stop-color="#0D4662"/>
<stop offset="1" stop-color="#375F73"/>
</linearGradient>
<linearGradient id="paint7_linear" x1="67.6892" y1="70.4274" x2="67.8158" y2="70.4108" gradientUnits="userSpaceOnUse">
<stop stop-color="#0D4662"/>
<stop offset="1" stop-color="#375F73"/>
</linearGradient>
<linearGradient id="paint8_linear" x1="63.1471" y1="66.041" x2="69.8293" y2="82.1854" gradientUnits="userSpaceOnUse">
<stop stop-color="#0D4662"/>
<stop offset="1" stop-color="#375F73"/>
</linearGradient>
<linearGradient id="paint9_linear" x1="63.1849" y1="66.0355" x2="69.8671" y2="82.1799" gradientUnits="userSpaceOnUse">
<stop stop-color="#0D4662"/>
<stop offset="1" stop-color="#375F73"/>
</linearGradient>
<linearGradient id="paint10_linear" x1="64.4289" y1="65.9493" x2="68.5486" y2="75.9028" gradientUnits="userSpaceOnUse">
<stop stop-color="#0D4662"/>
<stop offset="1" stop-color="#375F73"/>
</linearGradient>
<linearGradient id="paint11_linear" x1="64.2086" y1="66.1026" x2="68.2812" y2="75.9421" gradientUnits="userSpaceOnUse">
<stop stop-color="#0D4662"/>
<stop offset="1" stop-color="#375F73"/>
</linearGradient>
<linearGradient id="paint12_linear" x1="63.8777" y1="65.8493" x2="68.0627" y2="75.9604" gradientUnits="userSpaceOnUse">
<stop stop-color="#0D4662"/>
<stop offset="1" stop-color="#375F73"/>
</linearGradient>
<linearGradient id="paint13_linear" x1="63.6232" y1="65.8784" x2="67.8102" y2="75.9943" gradientUnits="userSpaceOnUse">
<stop stop-color="#0D4662"/>
<stop offset="1" stop-color="#375F73"/>
</linearGradient>
<linearGradient id="paint14_linear" x1="63.839" y1="71.4153" x2="60.2851" y2="71.8822" gradientUnits="userSpaceOnUse">
<stop stop-color="#0D4662"/>
<stop offset="1" stop-color="#375F73"/>
</linearGradient>
<linearGradient id="paint15_linear" x1="64.9686" y1="80.0531" x2="61.4147" y2="80.52" gradientUnits="userSpaceOnUse">
<stop stop-color="#0D4662"/>
<stop offset="1" stop-color="#375F73"/>
</linearGradient>
<linearGradient id="paint16_linear" x1="62.8422" y1="71.5111" x2="62.9208" y2="71.5008" gradientUnits="userSpaceOnUse">
<stop stop-color="#0D4662"/>
<stop offset="1" stop-color="#375F73"/>
</linearGradient>
<linearGradient id="paint17_linear" x1="62.289" y1="71.584" x2="62.3675" y2="71.5737" gradientUnits="userSpaceOnUse">
<stop stop-color="#0D4662"/>
<stop offset="1" stop-color="#375F73"/>
</linearGradient>
<linearGradient id="paint18_linear" x1="61.7009" y1="71.6685" x2="61.8275" y2="71.6519" gradientUnits="userSpaceOnUse">
<stop stop-color="#0D4662"/>
<stop offset="1" stop-color="#375F73"/>
</linearGradient>
<linearGradient id="paint19_linear" x1="61.1939" y1="71.7346" x2="61.3204" y2="71.718" gradientUnits="userSpaceOnUse">
<stop stop-color="#0D4662"/>
<stop offset="1" stop-color="#375F73"/>
</linearGradient>
<linearGradient id="paint20_linear" x1="61.4127" y1="65.5305" x2="68.0949" y2="81.6749" gradientUnits="userSpaceOnUse">
<stop stop-color="#0D4662"/>
<stop offset="1" stop-color="#375F73"/>
</linearGradient>
<linearGradient id="paint21_linear" x1="61.4491" y1="65.5248" x2="68.1313" y2="81.6693" gradientUnits="userSpaceOnUse">
<stop stop-color="#0D4662"/>
<stop offset="1" stop-color="#375F73"/>
</linearGradient>
<linearGradient id="paint22_linear" x1="62.6952" y1="65.4391" x2="66.8149" y2="75.3925" gradientUnits="userSpaceOnUse">
<stop stop-color="#0D4662"/>
<stop offset="1" stop-color="#375F73"/>
</linearGradient>
<linearGradient id="paint23_linear" x1="62.4725" y1="65.5924" x2="66.5451" y2="75.432" gradientUnits="userSpaceOnUse">
<stop stop-color="#0D4662"/>
<stop offset="1" stop-color="#375F73"/>
</linearGradient>
<linearGradient id="paint24_linear" x1="62.1428" y1="65.339" x2="66.3279" y2="75.4502" gradientUnits="userSpaceOnUse">
<stop stop-color="#0D4662"/>
<stop offset="1" stop-color="#375F73"/>
</linearGradient>
<linearGradient id="paint25_linear" x1="61.8884" y1="65.3678" x2="66.0753" y2="75.4837" gradientUnits="userSpaceOnUse">
<stop stop-color="#0D4662"/>
<stop offset="1" stop-color="#375F73"/>
</linearGradient>
<linearGradient id="paint26_linear" x1="36.7436" y1="14.9692" x2="44.904" y2="18.3273" gradientUnits="userSpaceOnUse">
<stop stop-color="#77AED9"/>
<stop offset="1" stop-color="#456A87"/>
</linearGradient>
<linearGradient id="paint27_linear" x1="38.5051" y1="5.76183" x2="48.3854" y2="12.8377" gradientUnits="userSpaceOnUse">
<stop stop-color="#77AED9"/>
<stop offset="1" stop-color="#456A87"/>
</linearGradient>
<linearGradient id="paint28_linear" x1="39.6736" y1="15.1882" x2="47.8339" y2="18.5463" gradientUnits="userSpaceOnUse">
<stop stop-color="#143052"/>
<stop offset="1" stop-color="#4A6A91"/>
</linearGradient>
<linearGradient id="paint29_linear" x1="42.7119" y1="7.03244" x2="51.3626" y2="13.2277" gradientUnits="userSpaceOnUse">
<stop stop-color="#143052"/>
<stop offset="1" stop-color="#4A6A91"/>
</linearGradient>
<linearGradient id="paint30_linear" x1="40.4657" y1="10.1588" x2="40.4657" y2="68.7841" gradientUnits="userSpaceOnUse">
<stop stop-color="#84ADCD"/>
<stop offset="1" stop-color="#84ADCD"/>
</linearGradient>
<linearGradient id="paint31_linear" x1="42.7527" y1="23.191" x2="40.6869" y2="50.6599" gradientUnits="userSpaceOnUse">
<stop stop-color="#77AED9"/>
<stop offset="1" stop-color="#456A87"/>
</linearGradient>
<linearGradient id="paint32_linear" x1="12.8458" y1="40.9262" x2="17.5751" y2="44.337" gradientUnits="userSpaceOnUse">
<stop stop-color="#6B8BB1"/>
<stop offset="1" stop-color="#35547A"/>
</linearGradient>
<linearGradient id="paint33_linear" x1="62.5258" y1="44.4198" x2="68.2852" y2="47.2275" gradientUnits="userSpaceOnUse">
<stop stop-color="#35547A"/>
<stop offset="1" stop-color="#6B8BB1"/>
</linearGradient>
</defs>
</svg>
